<?xml version="1.0" encoding="UTF-8"?>
<svg id="couche" xmlns="http://www.w3.org/2000/svg" viewBox="0 0 529.14 415.71">
  <defs>
    <style>
      .cls-1 {
        fill: #e6d4c3;
      }

      .cls-1, .cls-2, .cls-3, .cls-4, .cls-5, .cls-6, .cls-7 {
        stroke: #000;
        stroke-miterlimit: 10;
        stroke-width: .3px;
      }

      .cls-2 {
        fill: #f6f4cb;
      }

      .cls-3 {
        fill: #c8d2ad;
      }

      .cls-4 {
        fill: #fff6ee;
      }

      .cls-8 {
        fill: #afefe6;
      }

      .cls-5 {
        opacity: .29;
        stroke-dasharray: .83;
      }

      .cls-5, .cls-6 {
        fill: none;
      }

      .cls-7 {
        fill: #f4f5f6;
      }
    </style>
  </defs>
  <circle class="cls-8" cx="333.42" cy="320.77" r="34.24"/>
  <path class="cls-4" d="M357.77,307.67c-22.45,7.13-42.4,1.59-48.57-.51.27-.87.74-1.65,1.57-1.9.72-.23,1.51.02,2.18.36.68.34,1.32.77,2.06.95,2.27.54,4.64-1.52,6.86-.78,1,.33,1.73,1.17,2.61,1.75,1.76,1.15,4.19,1.17,5.96.04,1.61-1.03,4.31-1.03,5.92,0,1.77,1.13,4.21,1.12,5.96-.04.88-.58,1.61-1.42,2.61-1.75,2.22-.74,4.59,1.32,6.86.78.74-.18,1.38-.61,2.06-.95.68-.34,1.46-.59,2.18-.36,1,.31,1.48,1.36,1.71,2.42Z"/>
  <path class="cls-6" d="M357.58,307.67c-22.27,7.13-42.06,1.59-48.18-.51.26-.87.73-1.65,1.56-1.9.72-.23,1.5.02,2.17.36.67.34,1.31.77,2.04.95,2.26.54,4.61-1.52,6.81-.78.99.33,1.72,1.17,2.59,1.75,1.74,1.15,4.16,1.17,5.92.04,1.6-1.03,4.28-1.03,5.87,0,1.76,1.13,4.17,1.12,5.92-.04.87-.58,1.6-1.42,2.59-1.75,2.2-.74,4.55,1.32,6.81.78.73-.18,1.37-.61,2.04-.95.67-.34,1.45-.59,2.17-.36.99.31,1.47,1.36,1.69,2.42Z"/>
  <path class="cls-3" d="M358.21,315.36c-2.41.46-4.85.74-7.3.84-.21,0-.43.01-.6-.11-.25-.17-.29-.51-.3-.81-.04-.92-.09-1.85-.13-2.77-.01-.29-.02-.6.15-.84.16-.23.45-.33.73-.41,2.41-.74,4.82-1.49,7.23-2.22.16,1.42.2,2.84.23,4.27.02.68.03,1.37,0,2.06Z"/>
  <path class="cls-1" d="M350.91,316.2c-.21,0-.43.01-.6-.11-.25-.17-.29-.51-.3-.81-.04-.92-.09-1.85-.13-2.77-.01-.29-.02-.6.15-.84.16-.23.45-.33.73-.41,2.41-.74,4.82-1.49,7.23-2.22-.03-.25-.06-.49-.09-.73-.03-.21-.06-.42-.11-.63-22.45,7.13-42.4,1.59-48.57-.51-.12.38-.2.77-.25,1.14-.03.24-.06.48-.09.72,2.36.62,4.9.61,7.19,1.5.67.26,1.35.63,1.66,1.28.21.45.2.97.19,1.47-.01.61-.03,1.21-.04,1.82,0,.39-.05.84-.37,1.06-.27.18-.62.13-.94.06-2.65-.53-5.29-1.05-7.94-1.57,0,.73.03,1.46.14,2.16,1.68-.11,3.32.75,4.48,1.97,1.17,1.23,1.92,2.8,2.56,4.37.95,2.36,1.69,4.79,2.67,7.14.69,1.66,1.52,3.28,2.58,4.72.44.6.92,1.16,1.45,1.68,1.81,1.78,4.24,3.04,6.78,3.03,2.65,0,5.68,0,8.33,0,2.54,0,4.97-1.25,6.78-3.03.53-.52,1.01-1.09,1.45-1.68,1.06-1.44,1.89-3.06,2.58-4.72.98-2.34,1.71-4.78,2.67-7.14.63-1.57,1.38-3.14,2.55-4.37,1.16-1.22,2.8-2.08,4.48-1.97.07-.47.1-.96.12-1.44-2.41.46-4.85.74-7.3.84ZM340.53,322.94c-.17.48-.53.88-.9,1.23-.53.5-1.21.96-1.92.83-.41-.07-.76-.33-1.17-.4-.29-.05-.58,0-.87-.03-.5-.06-.9-.36-1.26-.73-.05.13-.1.25-.16.36-.4.7-1.34,1.02-2.08.71-.66-.28-1.17-.99-1.89-.98-.39,0-.75.24-1.12.35-.31.09-.66.11-.96-.03-.57-.25-.95-.94-1.32-1.42-.33-.42-.68-.81-1.02-1.23-.57-.7-.78-1.74-.42-2.6.23-.56.72-.95,1.3-1.12.46-.11.95-.05,1.38-.25.56-.26.84-.89,1.31-1.29.41-.34.97-.5,1.5-.41.53.09,1.01.41,1.29.87.23.38.33.84.63,1.17.33.37.85.49,1.31.66.25.09.5.19.73.32.09-.56.4-1.08.85-1.44.67-.54,1.59-.7,2.44-.57.54.08,1.08.29,1.48.67.62.59.81,1.51.71,2.36-.05.44-.18.87-.33,1.28.11.05.21.12.29.21.35.38.39.97.21,1.45Z"/>
  <path class="cls-2" d="M340.36,319.99c-.05.44-.18.87-.33,1.28-.36-.17-.82-.14-1.07.17-.37-.64-.86-1.25-1.56-1.51-.45-.17-1-.13-1.41.11-.02-.05-.05-.09-.08-.14-.25-.4-.62-.7-1.04-.93.09-.56.4-1.08.85-1.44.67-.54,1.59-.7,2.44-.57.54.08,1.08.29,1.48.67.62.59.81,1.51.71,2.36Z"/>
  <path class="cls-7" d="M340.53,322.94c-.17.48-.53.88-.9,1.23-.53.5-1.21.96-1.92.83-.41-.07-.76-.33-1.17-.4-.29-.05-.58,0-.87-.03-.5-.06-.9-.36-1.26-.73.14-.38.22-.78.48-1.09.27-.32.68-.48.96-.79.47-.5.47-1.31.15-1.92.41-.24.95-.28,1.41-.11.69.26,1.19.87,1.56,1.51.25-.3.71-.34,1.07-.17.11.05.21.12.29.21.35.38.39.97.21,1.45Z"/>
  <path class="cls-4" d="M358.09,316.8c-.14,1.02-.42,2-.96,2.88-.67,1.09-1.72,1.98-2.05,3.22-.23.84-.09,1.72-.06,2.59.03.86-.09,1.81-.69,2.43-.81.83-2.24.85-2.95,1.77-.57.74-.45,1.78-.74,2.66-.38,1.12-1.42,1.9-2.53,2.28-.74.24-1.52.34-2.3.38,1.06-1.44,1.89-3.06,2.58-4.72.98-2.34,1.71-4.78,2.67-7.14.63-1.57,1.38-3.14,2.55-4.37,1.16-1.22,2.8-2.08,4.48-1.97Z"/>
  <path class="cls-6" d="M357.89,316.8c-.14,1.02-.42,2-.96,2.88-.67,1.09-1.72,1.98-2.05,3.22-.23.84-.09,1.72-.06,2.59.03.86-.09,1.81-.69,2.43-.81.83-2.24.85-2.95,1.77-.57.74-.45,1.78-.74,2.66-.38,1.12-1.42,1.9-2.53,2.28-.74.24-1.52.34-2.3.38,1.06-1.44,1.89-3.06,2.58-4.72.98-2.34,1.71-4.78,2.67-7.14.63-1.57,1.38-3.14,2.55-4.37,1.16-1.22,2.8-2.08,4.48-1.97Z"/>
  <path class="cls-3" d="M317.9,313.28c-.01.61-.03,1.21-.04,1.82,0,.39-.05.84-.37,1.06-.27.18-.62.13-.94.06-2.65-.53-5.29-1.05-7.94-1.57,0-.45,0-.9.02-1.34.04-1.43.08-2.86.24-4.28,2.36.62,4.9.61,7.19,1.5.67.26,1.35.63,1.66,1.28.21.45.2.97.19,1.47Z"/>
  <path class="cls-5" d="M309.34,310.2c1.87.32,3.82.38,5.61.94.59.18,1.18.45,1.45.91.18.32.18.69.17,1.05-.01.43-.03.86-.04,1.29,0,.28-.04.6-.33.75-.23.13-.54.09-.82.05-2.06-.33-4.12-.66-6.18-1"/>
  <path class="cls-5" d="M357.77,314.54c-1.93.33-3.85.66-5.78,1-.26.04-.55.08-.77-.05-.26-.15-.3-.48-.3-.75-.01-.43-.02-.86-.04-1.29,0-.36-.01-.72.16-1.05.25-.46.81-.73,1.36-.91,1.67-.56,3.5-.62,5.24-.94"/>
  <path class="cls-4" d="M321.03,335.01c-.78-.04-1.56-.13-2.3-.38-1.11-.37-2.16-1.16-2.53-2.28-.3-.88-.18-1.92-.74-2.66-.7-.92-2.14-.93-2.95-1.77-.6-.62-.72-1.57-.69-2.43.03-.87.16-1.75-.06-2.59-.33-1.23-1.38-2.13-2.05-3.22-.54-.88-.82-1.86-.96-2.88,1.68-.11,3.32.75,4.48,1.97,1.17,1.23,1.92,2.8,2.56,4.37.95,2.36,1.69,4.79,2.67,7.14.69,1.66,1.52,3.28,2.58,4.72Z"/>
  <path class="cls-6" d="M321.21,335.01c-.78-.04-1.56-.13-2.3-.38-1.11-.37-2.16-1.16-2.53-2.28-.3-.88-.18-1.92-.74-2.66-.7-.92-2.14-.93-2.95-1.77-.6-.62-.72-1.57-.69-2.43.03-.87.16-1.75-.06-2.59-.33-1.23-1.38-2.13-2.05-3.22-.54-.88-.82-1.86-.96-2.88,1.68-.11,3.32.75,4.48,1.97,1.17,1.23,1.92,2.8,2.56,4.37.95,2.36,1.69,4.79,2.67,7.14.69,1.66,1.52,3.28,2.58,4.72Z"/>
  <path class="cls-7" d="M335.84,321.96c-.28.31-.7.47-.96.79-.25.31-.34.71-.48,1.09-.05.13-.1.25-.16.36-.4.7-1.34,1.02-2.08.71-.66-.28-1.17-.99-1.89-.98-.39,0-.75.24-1.12.35-.31.09-.66.11-.96-.03-.57-.25-.95-.94-1.32-1.42-.33-.42-.68-.81-1.02-1.23-.57-.7-.78-1.74-.42-2.6.23-.56.72-.95,1.3-1.12.46-.11.95-.05,1.38-.25.56-.26.84-.89,1.31-1.29.41-.34.97-.5,1.5-.41.53.09,1.01.41,1.29.87.23.38.33.84.63,1.17.33.37.85.49,1.31.66.25.09.5.19.73.32.42.23.79.53,1.04.93.03.04.05.09.08.14.32.61.31,1.41-.15,1.92Z"/>
  <path class="cls-6" d="M341.44,320.32l1.56.28"/>
  <path class="cls-6" d="M341.68,318l1.6-.73"/>
  <path class="cls-6" d="M340.16,316.45c.39-.53.7-1.12.9-1.75"/>
  <path class="cls-6" d="M337.58,315.74l-.19-1.46"/>
  <path class="cls-6" d="M334.26,315.32l1.05.86"/>
</svg>