<?xml version="1.0" encoding="UTF-8"?>
<svg id="diagrammes" xmlns="http://www.w3.org/2000/svg" viewBox="0 0 512 512">
  <defs>
    <style>
      .cls-1 {
        stroke: #e5561f;
      }

      .cls-1, .cls-2, .cls-3 {
        fill: none;
      }

      .cls-1, .cls-2, .cls-3, .cls-4, .cls-5 {
        stroke-miterlimit: 10;
      }

      .cls-1, .cls-5 {
        stroke-width: .25px;
      }

      .cls-2 {
        stroke: #ceb254;
        stroke-width: .33px;
      }

      .cls-6 {
        fill: #e5561f;
      }

      .cls-3 {
        stroke-width: .2px;
      }

      .cls-3, .cls-4 {
        stroke: #2f4899;
      }

      .cls-7 {
        fill: #fff8d3;
      }

      .cls-4 {
        fill: #2f4998;
        stroke-width: .16px;
      }

      .cls-5 {
        fill: #ceb256;
        stroke: #ceb255;
      }
    </style>
  </defs>
  <circle class="cls-7" cx="76.57" cy="192.83" r="10.63"/>
  <g>
    <polyline class="cls-1" points="81.61 199.37 70.03 199.37 70.03 187.8"/>
    <path class="cls-6" d="M83.12,199.37c-.71-.26-1.59-.71-2.14-1.19l.43,1.19-.43,1.19c.55-.48,1.43-.93,2.14-1.19Z"/>
    <path class="cls-6" d="M70.03,186.29c.26.71.71,1.59,1.19,2.14l-1.19-.43-1.19.43c.48-.55.93-1.43,1.19-2.14Z"/>
  </g>
  <ellipse class="cls-4" cx="74.17" cy="194.7" rx=".45" ry=".51"/>
  <polyline class="cls-3" points="71.04 196.26 73.95 194.96 76.81 192.75 79.51 189.64 81.13 186.57"/>
  <polyline class="cls-2" points="71.04 197.89 74.21 196.62 75.95 197.41 78.22 196.62 81.43 194.99 82.99 193.21 84.89 190.94"/>
  <line class="cls-1" x1="69.36" y1="189.83" x2="70.7" y2="189.83"/>
  <line class="cls-1" x1="69.36" y1="191.83" x2="70.7" y2="191.83"/>
  <line class="cls-1" x1="69.36" y1="193.83" x2="70.7" y2="193.83"/>
  <line class="cls-1" x1="69.36" y1="195.83" x2="70.7" y2="195.83"/>
  <ellipse class="cls-4" cx="77.65" cy="191.83" rx=".45" ry=".51"/>
  <ellipse class="cls-4" cx="81.13" cy="186.91" rx=".45" ry=".51"/>
  <ellipse class="cls-5" cx="74.01" cy="196.77" rx=".45" ry=".51"/>
  <ellipse class="cls-5" cx="76.28" cy="197.62" rx=".45" ry=".51"/>
  <ellipse class="cls-5" cx="81.38" cy="195.21" rx=".45" ry=".51"/>
  <ellipse class="cls-5" cx="85.05" cy="190.84" rx=".45" ry=".51"/>
</svg>