<?xml version="1.0" encoding="UTF-8"?>
<svg id="DODO" xmlns="http://www.w3.org/2000/svg" viewBox="0 0 80 80">
  <defs>
    <style>
      .cls-1 {
        fill: #e0b9ac;
      }

      .cls-1, .cls-2, .cls-3, .cls-4 {
        stroke-miterlimit: 10;
      }

      .cls-1, .cls-3, .cls-4 {
        stroke: #000;
        stroke-width: .28px;
      }

      .cls-2 {
        fill: none;
        stroke: #1d1d1b;
        stroke-width: .39px;
      }

      .cls-3 {
        fill: #f7d8cc;
      }

      .cls-5 {
        fill: #c6e4e6;
      }

      .cls-6 {
        fill: #f9d76b;
        opacity: .43;
      }

      .cls-4 {
        fill: #b3e2c6;
      }
    </style>
  </defs>
  <circle class="cls-5" cx="40" cy="40" r="34.24"/>
  <g>
    <path class="cls-4" d="M63.96,51.15c-.12.58-.36,1.15-.78,1.57-.42.42-1.04.67-1.62.54-.44-.1-.81-.39-1.14-.69-.57-.5-1.1-1.04-1.58-1.62-2.52,2.13-5.79,3.38-9.09,3.43-.89.01-1.79-.06-2.63-.33-.84-.27-1.64-.76-2.18-1.46-.51-.65-.77-1.46-.91-2.28-.07-.41-.11-.82-.12-1.24-.58,0-1.15.04-1.73.1.1.48.08.99-.09,1.46-.18.51-.53.95-.9,1.34-.59.62-1.26,1.19-2.04,1.53-.78.34-1.69.46-2.5.21-1.08-.33-1.86-1.23-2.81-1.84-.46.19-.94.35-1.44.41-.77.1-1.62-.05-2.19-.59-.21-.2-.37-.46-.45-.74.49-.02.97-.09,1.45-.22,1.63-.44,3-1.54,4.15-2.77,1.83-1.95,3.22-4.34,3.7-6.96.33-1.81.14-3.51-.37-5.13,2.42-1.02,4.84-2.03,7.27-3.04,2.12-.89,4.33-1.8,6.64-1.75,2.53.05,5.01,1.33,6.51,3.37,1.5,2.04,2,4.79,1.3,7.22-.26.92-.7,1.79-1.27,2.57,1.24.33,2.39.96,3.28,1.87,1.27,1.31,1.95,3.24,1.56,5.03Z"/>
    <path class="cls-3" d="M39.05,41.01c-.48,2.62-1.88,5.02-3.7,6.96-1.15,1.23-2.53,2.33-4.15,2.77-.48.13-.96.2-1.45.22-1.25.06-2.53-.19-3.74-.54-4.15-1.21-7.94-3.67-10.73-6.97-.94-1.11-1.78-2.34-2.15-3.75-.31-1.19-.27-2.43-.2-3.65.16-2.76.51-5.68,2.24-7.85.89-1.12,2.09-1.96,3.32-2.69,1.69-1.02,3.51-1.9,5.46-2.09,2.84-.27,5.66.98,7.85,2.8.97.8,1.84,1.72,2.65,2.68h0c.12.15.24.29.35.43.73.9,1.44,1.85,2.07,2.84h0c.31.49.6.98.86,1.49.37.72.69,1.47.94,2.23.52,1.61.7,3.32.37,5.13Z"/>
    <path class="cls-6" d="M22.97,35.49c0-.89-.38-1.78-1.03-2.39-.3-.28-.69-.38-.99-.62-.35-.28-.49-.59-1-.61-.44-.02-.87.15-1.3.22-.42.07-.86.05-1.28.15-1.01.25-1.13,1.16-1,2.07.06.42.23.85.55,1.13.84.74,2.23.24,3.19.81.41.24.7.67.87,1.12s.23.93.3,1.41c1-.79,1.71-2,1.71-3.28Z"/>
    <path class="cls-1" d="M39.49,30.43c0,1.08-.2,2.23-.93,3.03-.16.17-.36.33-.59.3-.09-.01-.16-.05-.23-.1-.26-.5-.55-1-.86-1.48h0c-.63-.99-1.34-1.94-2.07-2.84-.12-.14-.23-.28-.35-.43h0c0-.69.11-1.43.57-1.95.54-.62,1.48-.79,2.25-.54.77.26,1.39.89,1.74,1.63.35.74.47,1.57.47,2.39Z"/>
    <path class="cls-2" d="M36.88,32.16c-.43-1.04-.63-2.18-.57-3.31"/>
    <path class="cls-2" d="M16.39,33.02c-.04.43-.09.86-.03,1.28s.23.85.55,1.13c.84.74,2.23.24,3.19.81.41.24.7.67.87,1.12s.23.93.3,1.41c1-.79,1.71-2,1.71-3.28,0-1.28-.79-2.56-2-2.98"/>
    <path class="cls-2" d="M23.49,46.12c.4.05.84.1,1.2-.1.24-.13.4-.36.53-.6.31-.58.41-1.26.3-1.91"/>
    <path class="cls-2" d="M29.82,39.11c.48.03,1,.04,1.42-.21.45-.26.7-.77.78-1.29s0-1.03-.07-1.55"/>
    <path class="cls-2" d="M31.26,46.56c.79.41,1.85.23,2.46-.42s.74-1.71.28-2.48"/>
    <path class="cls-2" d="M34.6,51.55c-.25.12-.51.23-.77.34"/>
    <path class="cls-2" d="M39.12,45.53c.86.62,1.74,1.25,2.36,2.11.33.45.58.99.68,1.54"/>
    <path class="cls-2" d="M38.71,48.53c-.8-.34-1.69-.46-2.55-.34-.47.06-.97.23-1.22.63"/>
    <path class="cls-2" d="M43.89,49.08c-.03-1.35.26-2.71.86-3.93.77-1.59,2.06-2.93,3.62-3.76"/>
    <path class="cls-2" d="M58.83,50.96c-.19-.22-.37-.44-.54-.66"/>
    <path class="cls-2" d="M55.46,47.11c1.46-.58,2.74-1.59,3.66-2.86"/>
  </g>
</svg>