<?xml version="1.0" encoding="UTF-8"?>
<svg id="soins" xmlns="http://www.w3.org/2000/svg" viewBox="0 0 48 48">
  <defs>
    <style>
      .cls-1, .cls-2 {
        fill: none;
        stroke-width: .8px;
      }

      .cls-1, .cls-2, .cls-3 {
        stroke: #000;
        stroke-miterlimit: 10;
      }

      .cls-4 {
        fill: #fdf7eb;
      }

      .cls-2 {
        stroke-linecap: round;
      }

      .cls-3 {
        fill: #c0d9bb;
        stroke-width: .5px;
      }
    </style>
  </defs>
  <path class="cls-3" d="M20.14,18.18v-1.69c0-.72.59-1.31,1.31-1.31h2.87c.73,0,1.31.59,1.31,1.31v1.66"/>
  <path class="cls-3" d="M25.63,18.15c-.35-.07-.7-.11-1.07-.11h-3.25c-.4,0-.8.05-1.17.14-2.26.53-3.94,2.55-3.94,4.97v11.16c0,1.09.88,1.97,1.96,1.97h9.55c1.08,0,1.96-.88,1.96-1.97v-11.16c0-2.45-1.73-4.51-4.04-5ZM22.93,31c-1.41,0-2.56-1.14-2.56-2.56,0-.38.08-.73.23-1.05l.25-.44,1.89-3.26c.09-.15.3-.15.39,0l1.89,3.26.25.44c.15.32.23.67.23,1.05,0,1.42-1.15,2.56-2.57,2.56Z"/>
  <path class="cls-4" d="M25.5,28.44c0,1.42-1.15,2.56-2.57,2.56s-2.56-1.14-2.56-2.56c0-.38.08-.73.23-1.05l.25-.44,1.89-3.26c.09-.15.3-.15.39,0l1.89,3.26.25.44c.15.32.23.67.23,1.05Z"/>
  <path class="cls-2" d="M19.94,11.22s.89.54,3.56.41,3.73-.53,4.98.96"/>
  <line class="cls-1" x1="22.93" y1="11.66" x2="22.93" y2="15.18"/>
</svg>