<?xml version="1.0" encoding="UTF-8"?>
<svg id="maladie" xmlns="http://www.w3.org/2000/svg" viewBox="0 0 48 48">
  <defs>
    <style>
      .cls-1 {
        fill: #e0edf5;
      }

      .cls-1, .cls-2, .cls-3 {
        stroke: #000;
        stroke-linecap: round;
      }

      .cls-1, .cls-3 {
        stroke-linejoin: round;
        stroke-width: .5px;
      }

      .cls-2 {
        fill: none;
        stroke-linejoin: bevel;
        stroke-width: .6px;
      }

      .cls-3 {
        fill: #bfd2e3;
      }

      .cls-4 {
        fill: #eab5b1;
      }
    </style>
  </defs>
  <path class="cls-3" d="M15.98,34.12c-.07.06-.11.1-.11.1l-2.49,2.63-.04.03c-.26.26-.61.41-1,.41-.79,0-1.43-.64-1.43-1.43,0-.4.16-.75.42-1.01l2.29-2.42s.11-.09.29-.25l2.07,1.94Z"/>
  <path class="cls-1" d="M35.99,17.18l-11.8,12.27s-1.72,2.21-3.66,2.12c0,0-2.26.36-4.03,2.06-.23.21-.41.39-.52.49l-2.07-1.94c.75-.67,2.71-2.6,2.59-4.36-.17-2.55,1.73-3.72,1.73-3.72l11.97-12.48c1.11-1.16,2.95-1.19,4.11-.08l1.59,1.54c1.16,1.11,1.2,2.95.09,4.1Z"/>
  <path class="cls-4" d="M15.38,32.43s2.89-1.73,4.81-2.41,7.15-6.47,7.15-6.47l-3.08-3.08s-5.79,5.23-6.47,7.15-2.41,4.81-2.41,4.81h0Z"/>
  <line class="cls-2" x1="19.49" y1="28.3" x2="30.6" y2="17.19"/>
  <line class="cls-2" x1="29.04" y1="13.94" x2="29.96" y2="14.85"/>
  <line class="cls-2" x1="26.62" y1="16.28" x2="27.53" y2="17.19"/>
  <line class="cls-2" x1="24.82" y1="18.02" x2="25.73" y2="18.93"/>
  <line class="cls-2" x1="23.09" y1="19.78" x2="24" y2="20.69"/>
  <line class="cls-2" x1="21.46" y1="21.65" x2="22.37" y2="22.56"/>
</svg>