<?xml version="1.0" encoding="UTF-8"?>
<svg id="diversification" xmlns="http://www.w3.org/2000/svg" viewBox="0 0 48 48">
  <defs>
    <style>
      .cls-1 {
        fill: #ddecf3;
      }

      .cls-1, .cls-2, .cls-3, .cls-4, .cls-5, .cls-6, .cls-7 {
        stroke: #000;
      }

      .cls-1, .cls-2, .cls-3, .cls-4, .cls-5, .cls-7 {
        stroke-miterlimit: 10;
      }

      .cls-1, .cls-2, .cls-4, .cls-6 {
        stroke-width: .5px;
      }

      .cls-2, .cls-3, .cls-4 {
        stroke-linecap: round;
      }

      .cls-2, .cls-3, .cls-5, .cls-7 {
        fill: none;
      }

      .cls-3 {
        stroke-width: .47px;
      }

      .cls-4 {
        fill: #edcc91;
      }

      .cls-5 {
        stroke-width: .53px;
      }

      .cls-6 {
        fill: #9aba89;
        stroke-linejoin: round;
      }

      .cls-7 {
        stroke-width: .54px;
      }
    </style>
  </defs>
  <path class="cls-1" d="M27.04,11.36c-.07-.07-.14-.13-.22-.17-.03-.02-.06-.05-.09-.06-.24-.16-.52-.24-.82-.24-.86,0-1.57.7-1.57,1.56,0,.54.27,1.02.69,1.29,0,0,0,.01,0,.01.1.07.21.13.33.17,1.48.84,2.48,2.43,2.48,4.26,0,2.71-2.19,4.91-4.9,4.91s-4.91-2.2-4.91-4.91c0-1.86,1.04-3.48,2.57-4.31.53-.31.88-.88.88-1.53,0-.98-.79-1.77-1.78-1.77-.36,0-.69.11-.97.29-.04.02-.07.04-.1.07-3.99,2.88-6.64,9.74-6.64,14.47,0,6.14,4.9,11.11,10.95,11.11s10.94-4.97,10.94-11.11c0-4.51-2.91-10.96-6.85-14.04Z"/>
  <path class="cls-7" d="M25.03,13.74s0,.01.01.01c.1.07.21.13.33.17,1.48.84,2.48,2.43,2.48,4.26,0,2.71-2.19,4.91-4.9,4.91s-4.91-2.2-4.91-4.91c0-1.86,1.04-3.48,2.57-4.31"/>
  <path class="cls-5" d="M26.73,11.13c-.24-.16-.52-.24-.82-.24-.86,0-1.57.7-1.57,1.56,0,.54.27,1.02.69,1.29,0,0,0,.01.01.01.1.07.21.13.33.17,1.48.84,2.48,2.43,2.48,4.26,0,2.71-2.19,4.91-4.9,4.91s-4.91-2.2-4.91-4.91c0-1.86,1.04-3.48,2.57-4.31.53-.31.88-.88.88-1.53,0-.98-.79-1.77-1.78-1.77-.36,0-.69.11-.97.29"/>
  <path class="cls-3" d="M25.85,12.17c4.45,2.43,6.71,8.65,6.71,13.03,0,5.39-4.31,9.76-9.62,9.76s-9.62-4.37-9.62-9.76c0-4.33,2.29-10.39,6.65-12.97"/>
  <g>
    <path class="cls-6" d="M23.45,26.23c-.01-.71.09-1.74.79-1.66.63.08.68.55.62.92,0,0,.85-1.34,1.58-.62.72.73-.18,1.65-.18,1.65.38-.06.85-.01.92.61.09.7-.93.81-1.64.79"/>
    <path class="cls-4" d="M25.17,29.97l-.04.05-3.88,1.73s0,0-.02,0c-.53.22-.97-.16-.8-.71,0,0,0-.02,0-.02l1.24-4.03.06-.07c.38-.43.87-.68,1.33-.71.37-.04.73.05,1,.29l1.23,1.09c.27.24.41.58.42.94.02.47-.16.99-.54,1.43Z"/>
    <line class="cls-2" x1="21.53" y1="27.46" x2="22.66" y2="28.59"/>
    <line class="cls-2" x1="22.96" y1="30.99" x2="22.03" y2="30.05"/>
  </g>
</svg>