<?xml version="1.0" encoding="UTF-8"?>
<svg id="couches" xmlns="http://www.w3.org/2000/svg" viewBox="0 0 48 48">
  <defs>
    <style>
      .cls-1 {
        fill: #c2906f;
        stroke: #000;
        stroke-miterlimit: 10;
        stroke-width: .5px;
      }
    </style>
  </defs>
  <path class="cls-1" d="M37.14,32.05v.48c0,2.23-1.81,4.03-4.04,4.03H14.59c-2.23,0-4.04-1.8-4.04-4.03v-.48c0-2.05,1.52-3.74,3.5-4-.38-.61-.59-1.33-.59-2.1,0-1.11.45-2.13,1.18-2.86.55-.55,1.25-.94,2.04-1.1-.2-.41-.25-.89-.3-1.34-.06-.57-.05-1.01.21-1.57.19-.39.61-.71,1-.9,1.1-.52,2.32-.79,3.54-.78-.63-.48-.83-1.37-.69-2.16.14-.78.57-1.47.98-2.15.19-.31.39-.62.65-.86.27-.25.62-.42.98-.39-.24,1.01.36,2.07,1.18,2.71s1.84.95,2.82,1.3c.99.34,1.99.76,2.68,1.54.73.84,1.01,2.05.72,3.13-.14.52-.42.99-.79,1.39h.19c2.23,0,4.03,1.81,4.03,4.04,0,.75-.21,1.46-.57,2.07,2.13.11,3.83,1.87,3.83,4.03Z"/>
  <path class="cls-1" d="M17.49,29.99c-1.46,0-2.74-.78-3.44-1.94"/>
  <path class="cls-1" d="M27.15,29.99h2.7c1.11,0,2.12-.45,2.85-1.18.24-.24.44-.5.61-.79"/>
  <line class="cls-1" x1="16.69" y1="21.99" x2="16.68" y2="21.99"/>
  <path class="cls-1" d="M17.49,29.99c-1.46,0-2.74-.78-3.44-1.94"/>
  <path class="cls-1" d="M27.15,29.99h2.7c1.11,0,2.12-.45,2.85-1.18.24-.24.44-.5.61-.79"/>
  <path class="cls-1" d="M29.66,21.91c-.38.42-.88.75-1.42.93"/>
  <path class="cls-1" d="M16.68,21.99h.01c.03.06.06.12.1.18.42.63,1.19.91,1.92,1.09,1.64.41,3.35.53,5.03.34"/>
</svg>