<?xml version="1.0" encoding="UTF-8"?>
<svg id="rythme" xmlns="http://www.w3.org/2000/svg" viewBox="0 0 48 48">
  <defs>
    <style>
      .cls-1 {
        fill: none;
      }

      .cls-1, .cls-2, .cls-3 {
        stroke: #000;
        stroke-miterlimit: 10;
        stroke-width: .5px;
      }

      .cls-2 {
        fill: #f6ab8c;
      }

      .cls-3 {
        fill: #e3b28a;
      }
    </style>
  </defs>
  <path class="cls-3" d="M29.75,15.93c.81-.47,1.35-1.34,1.35-2.35,0-1.51-1.22-2.73-2.73-2.73-1.01,0-1.89.55-2.36,1.36"/>
  <path class="cls-3" d="M16.53,15.87c-.64-.5-1.04-1.27-1.04-2.14,0-1.51,1.22-2.73,2.73-2.73.91,0,1.71.45,2.21,1.13"/>
  <path class="cls-3" d="M30.18,18.15c0,1.99-.97,3.77-2.5,4.96l-.02.02s-.06.05-.1.07c-.19.15-.39.28-.6.41-.24-.17-.57-.2-.86-.03l-1.69.97c-.1.02-.2.04-.31.04-.23-.28-.58-.46-.97-.46s-.74.18-.97.46c-.06,0-.13-.01-.18-.02l-1.72-.99c-.31-.18-.66-.13-.9.06-.24-.13-.47-.29-.69-.44-.02-.02-.03-.03-.05-.04-1.55-1.2-2.54-3-2.54-5.01,0-.8.16-1.57.45-2.28.68-1.69,2.1-3.05,3.9-3.74.83-.31,1.74-.49,2.7-.49,1.03,0,2,.2,2.88.57,1.73.71,3.1,2.06,3.74,3.72.28.69.43,1.44.43,2.22Z"/>
  <ellipse cx="25.84" cy="18.15" rx=".61" ry=".8"/>
  <ellipse cx="20.58" cy="18.15" rx=".61" ry=".8"/>
  <path d="M24.32,19.98c0,.37-.54.98-1.2.98s-1.2-.61-1.2-.98.54-.67,1.2-.67,1.2.3,1.2.67Z"/>
  <path class="cls-3" d="M26.44,35.64c-.44-.92-.46-2.12.03-3.23.7-1.57,2.17-2.49,3.56-2.34h.01c.16.02.32.06.48.1h.01c.31-.12.66-.27.91-.35.66-.22,1.33-.65,1.52-1.32.14-.45.03-.95-.19-1.37s-.55-.77-.88-1.11c-1.17-1.19-2.64-2.39-4.21-2.91l-.02.02s-.06.05-.1.07c-.19.15-.39.28-.6.41.21.14.36.37.36.67v2.25c0,.62-.68,1.01-1.22.7l-1.92-1.11c-.23.34-.61.56-1.05.56s-.79-.2-1.01-.52l-1.86,1.07c-.54.31-1.22-.08-1.22-.7v-2.25c0-.28.13-.5.32-.64-.24-.13-.47-.29-.69-.44-.02-.02-.03-.03-.05-.04-1.57.51-2.98,1.67-4.15,2.86-.33.34-.66.69-.88,1.11s-.33.92-.19,1.37c.19.67.86,1.1,1.52,1.32.37.12.75.2,1.12.3,1.47-.33,3.1.61,3.85,2.29.49,1.11.47,2.31.03,3.23"/>
  <path class="cls-1" d="M27.56,23.2s.07-.04.1-.07l.02-.02"/>
  <path class="cls-3" d="M30.52,30.17c-.15.06-.28.11-.4.14l-.08-.24c.16.02.32.06.48.1Z"/>
  <path class="cls-3" d="M32.15,34.92c-.82,1.87-2.76,2.82-4.33,2.12-.63-.28-1.1-.78-1.38-1.4-.44-.92-.46-2.12.03-3.23.7-1.57,2.17-2.49,3.56-2.34h0c.16.02.32.06.48.1h.01c.09.03.18.07.28.11,1.57.7,2.17,2.77,1.34,4.64Z"/>
  <path class="cls-2" d="M27.32,24.28v2.25c0,.62-.68,1.01-1.22.7l-1.92-1.11c.14-.21.22-.45.22-.72s-.08-.51-.22-.71l.23-.14,1.69-.97c.29-.17.62-.14.86.03.21.14.36.37.36.67Z"/>
  <path class="cls-1" d="M18.67,23.2s-.03-.03-.05-.04"/>
  <path class="cls-3" d="M19.92,35.64c-.28.62-.75,1.12-1.38,1.4-1.56.7-3.51-.25-4.33-2.12-.83-1.87-.23-3.94,1.34-4.64.16-.07.33-.12.49-.16,1.47-.33,3.1.61,3.85,2.29.49,1.11.47,2.31.03,3.23Z"/>
  <path class="cls-2" d="M21.86,25.4c0,.28.09.55.26.76l-1.86,1.07c-.54.31-1.22-.08-1.22-.7v-2.25c0-.28.13-.5.32-.64.24-.19.59-.24.9-.06l1.72.99.14.08c-.17.21-.26.47-.26.75Z"/>
  <path class="cls-2" d="M24.4,25.4c0,.27-.08.51-.22.72-.23.34-.61.56-1.05.56s-.79-.2-1.01-.52c-.17-.21-.26-.48-.26-.76s.09-.54.26-.75c0-.02.02-.04.04-.06.23-.28.58-.46.97-.46s.74.18.97.46c.03.03.06.06.08.1.14.2.22.45.22.71Z"/>
  <line class="cls-1" x1="23.13" y1="21.66" x2="23.13" y2="20.45"/>
  <path class="cls-3" d="M19.92,35.64c.92.2,2.05.32,3.26.32s2.34-.12,3.26-.32"/>
  <path class="cls-3" d="M29.41,30.08c-.07-1.32-.51-2.63-1.26-3.72"/>
  <path class="cls-3" d="M18.21,26.36c-.75,1.09-1.19,2.4-1.26,3.72"/>
</svg>