<?xml version="1.0" encoding="UTF-8"?>
<svg id="reglages" xmlns="http://www.w3.org/2000/svg" viewBox="0 0 48 48">
  <defs>
    <style>
      .cls-1 {
        fill: #fbf7ec;
      }

      .cls-1, .cls-2, .cls-3 {
        stroke: #000;
        stroke-miterlimit: 10;
      }

      .cls-1, .cls-3 {
        stroke-width: .28px;
      }

      .cls-2 {
        fill: #f3ceb1;
        stroke-width: .4px;
      }

      .cls-3 {
        fill: #b6d0e1;
      }
    </style>
  </defs>
  <path class="cls-2" d="M32.53,28.72l1.59,3.34c-.6.76-1.29,1.45-2.05,2.05l-3.34-1.59c-.8-.38-1.74.01-2.03.84l-1.24,3.48c-.47.06-.96.08-1.45.08s-.98-.03-1.45-.08l-1.24-3.48c-.3-.83-1.24-1.22-2.03-.84l-3.34,1.59c-.76-.6-1.45-1.29-2.05-2.05l1.59-3.34c.37-.79-.02-1.73-.84-2.03l-3.48-1.24c-.06-.47-.08-.96-.08-1.45s.03-.98.08-1.45l3.48-1.24c.82-.29,1.21-1.24.84-2.03l-1.59-3.34c.6-.76,1.29-1.45,2.05-2.05l3.34,1.59c.79.38,1.73-.01,2.03-.84l1.24-3.48c.47-.06.96-.08,1.45-.08s.98.03,1.45.08l1.24,3.48c.29.83,1.24,1.22,2.03.84l3.34-1.59h0c.76.6,1.45,1.29,2.05,2.05h0s-1.59,3.34-1.59,3.34c-.38.8.01,1.74.84,2.03l3.48,1.24c.06.47.08.96.08,1.45s-.03.98-.08,1.45l-3.48,1.24c-.83.29-1.22,1.24-.84,2.03Z"/>
  <circle class="cls-3" cx="24" cy="24" r="6.8"/>
  <circle class="cls-1" cx="24" cy="24" r="4.35"/>
</svg>