<?xml version="1.0" encoding="UTF-8"?>
<svg id="allaitement" xmlns="http://www.w3.org/2000/svg" viewBox="0 0 48 48">
  <defs>
    <style>
      .cls-1 {
        fill: #e2b28a;
      }

      .cls-2 {
        fill: #f4e8d0;
      }

      .cls-3 {
        fill: #bed6b8;
      }

      .cls-4, .cls-5 {
        fill: none;
      }

      .cls-6 {
        fill: #f2ded1;
      }

      .cls-7 {
        fill: #c0dbea;
      }

      .cls-5 {
        stroke: #000;
        stroke-linecap: round;
        stroke-linejoin: round;
        stroke-width: .3px;
      }
    </style>
  </defs>
  <g>
    <path class="cls-3" d="M29.37,35.5c-.76.26-1.55.45-2.34.61-2.05.43-4.27.69-6.17-.19-1.25-.58-2.25-1.63-2.96-2.81-.55-.92-.94-1.92-1.27-2.94-.09-.3-.18-.6-.27-.9-.38-1.37-.67-2.9,0-4.15.65-1.22,2.01-1.81,3.16-2.61.36.82.75,1.64,1.34,2.31.53.61,1.21,1.08,1.75,1.68.89.99,1.34,2.27,1.69,3.56-1.2.31-2.31.96-3.16,1.85.08.4.13.81.17,1.22.43-.31,1.03-.26,1.52-.08.5.18.94.49,1.43.69,1.07.46,2.05.44,3.22.39h.45c.26.04.48.03.72-.12.12.09.22.21.31.33.24.34.35.75.41,1.16Z"/>
    <path class="cls-2" d="M31.68,34.27c-.69.55-1.48.93-2.31,1.23-.06-.41-.17-.82-.41-1.16-.09-.12-.19-.24-.31-.33.04-.03.07-.05.11-.08.29-.23.48-.56.63-.89.15-.33.28-.68.48-.99.33-.5.83-.84,1.36-1.11.17.59.11,1.25-.1,1.84.96-.79,1.78-1.62,2.28-2.76.57-.17-.42,3.2-1.73,4.25Z"/>
    <path class="cls-4" d="M25.08,29.89h.01c.15.49.53.91.99,1.17.52.3,1.13.42,1.73.43"/>
    <path class="cls-4" d="M30.39,28.87c.24.07.5.1.75.09.18,0,.38-.05.47-.21.11-.19-.02-.44.03-.65"/>
    <path class="cls-6" d="M34.01,29.2c-.51.68-1.32,1.05-2.09,1.4-.23.1-.46.21-.69.34-.03-.08-.05-.16-.08-.23-.26-.66-.89-1.04-1.53-1.34-.33-.16-.71-.19-1.07-.19-.17,0-.35.01-.52.03-.07-.13-.13-.27-.19-.41-.21-.53-.28-1.14-.06-1.67.04-.1.1-.2.17-.29.09-.12.22-.22.36-.26.12-.02.24-.02.34-.08.14-.1.15-.29.17-.46.03-.22.12-.43.25-.62.16-.26.4-.47.67-.62.46-.26,1.01-.33,1.54-.29h.02c1.1.07,2.18.64,2.77,1.58.59.93.6,2.23-.06,3.11Z"/>
    <path class="cls-4" d="M21.14,31.91c-.28-1.51-.82-2.96-1.6-4.28"/>
    <path class="cls-2" d="M28.88,16.03c0,.47-.17.91-.43,1.3-.13.21-.29.41-.41.63l-.24.53-.05.22c.08.49.16.97.24,1.45.02.12.02.28-.1.32-.08.03-.16-.02-.25-.04-.18-.04-.37.08-.47.24-.11.17-.15.36-.23.53-.13.32-.37.57-.67.74-.4.24-.9.34-1.36.25-.1-.02-.19-.04-.29-.07.14,1.08.63,2.13,1.33,2.95.89.23,1.64.91,2,1.76-.07.09-.13.19-.17.29-.22.53-.15,1.14.06,1.67.06.14.12.28.19.41-.38.03-.76.11-1.13.23-.07-.26-.27-.47-.45-.68-.13-.16-.25-.36-.26-.56,0-.06,0-.12.02-.18.05-.15.15-.26.22-.39.06-.13.07-.32-.06-.4-.12-.01-.25-.03-.38-.04-.14-.31-.52-.49-.85-.41-.34.08-.59.4-.59.75.01.36.26.66.36,1.01,0,.01.01.02.01.03.1.35.05.73.11,1.09,0,.08.03.15.05.23-.27.04-.52.09-.78.17-.35-1.29-.8-2.57-1.69-3.56-.54-.6-1.22-1.07-1.75-1.68-.59-.67-.98-1.49-1.34-2.31.38-.27.74-.56,1.04-.91.56-.65.98-1.6,1.25-2.42.16-.47.27-.96.47-1.41.02-.05.05-.1.08-.15.04-.03.08-.04.12-.05.96-.27,1.98-.25,2.94-.51,1.21-.33,2.23-1.17,2.89-2.23.38.27.57.74.57,1.2Z"/>
    <path class="cls-4" d="M23.65,23.24c-.1-.25-.14-.53-.1-.81.04-.27.16-.52.3-.75"/>
    <path class="cls-4" d="M22.36,17.62c-1.42.45-2.6,1.59-3.09,3"/>
    <path class="cls-4" d="M23.1,20.7c.18.37.44.71.75.98.23.2.49.35.77.45"/>
    <path class="cls-3" d="M29.07,25.42c-.13.19-.22.4-.25.62-.02.17-.03.36-.17.46-.1.06-.22.06-.34.08-.14.04-.27.14-.36.26-.36-.85-1.11-1.53-2-1.76-.7-.82-1.19-1.87-1.33-2.95.1.03.19.05.29.07.46.09.96-.01,1.36-.25.27.08.52.23.73.42.33.3.57.69.81,1.07.42.66.84,1.32,1.26,1.98Z"/>
    <path class="cls-1" d="M31.28,24.51c-.53-.04-1.08.03-1.54.29-.27.15-.51.36-.67.62-.42-.66-.84-1.32-1.26-1.98-.24-.38-.48-.77-.81-1.07-.21-.19-.46-.34-.73-.42.3-.17.54-.42.67-.74.08-.17.12-.36.23-.53.1-.16.29-.28.47-.24.09.02.17.07.25.04.12-.04.12-.2.1-.32-.08-.48-.16-.96-.24-1.45l.05-.22.24-.53c.12-.22.28-.42.41-.63.26-.39.43-.83.43-1.3s-.19-.93-.57-1.2c-.66,1.06-1.68,1.9-2.89,2.23-.96.26-1.98.24-2.94.51-.04.01-.08.02-.12.05-.03.05-.06.1-.08.15-.2.45-.31.94-.47,1.41-.27.82-.69,1.77-1.25,2.42-.3.35-.66.64-1.04.91-1.15.8-2.51,1.39-3.16,2.61-.67,1.25-.38,2.78,0,4.15.09.3.18.6.27.9-.88-.55-1.61-1.37-2.03-2.32-.52-1.19-.58-2.57-.15-3.8.74-2.12,2.75-3.56,3.64-5.62.49-1.11.62-2.34,1.04-3.48.56-1.53,1.7-2.87,3.19-3.51s3.35-.5,4.61.52c.46.37.84.84,1.3,1.21.38.29.8.51,1.14.85.53.53.78,1.3.82,2.05s-.1,1.5-.26,2.24c-.16.76-.33,1.54-.21,2.31.13.84.61,1.58,1,2.33.25.49.48,1.02.56,1.56Z"/>
    <path class="cls-4" d="M24.58,21.43c-.01.23.01.47.04.7"/>
    <path class="cls-7" d="M31.23,30.94c-.53.27-1.03.61-1.36,1.11-.2.31-.33.66-.48.99-.15.33-.34.66-.63.89-.04.03-.07.05-.11.08-.24.15-.46.16-.72.13h-.45c-1.17.04-2.15.06-3.22-.4-.49-.2-.93-.51-1.43-.69-.49-.18-1.09-.23-1.52.08-.04-.41-.09-.82-.17-1.22.85-.89,1.96-1.54,3.16-1.85.26-.08.51-.13.78-.17-.02-.08-.04-.15-.05-.23-.06-.36-.01-.74-.11-1.09.17-.01.34-.04.5-.08.27-.06.52-.17.77-.29.01.2.13.4.26.56.18.21.38.42.45.68.37-.12.75-.2,1.13-.23.17-.02.35-.03.52-.03.36,0,.74.03,1.07.19.64.3,1.27.68,1.53,1.34.03.07.05.15.08.23Z"/>
    <path class="cls-6" d="M26.43,27.63c-.07.13-.17.24-.22.39-.02.06-.02.12-.02.18-.25.12-.5.23-.77.29-.16.04-.33.07-.5.08,0-.01-.01-.02-.01-.03-.1-.35-.35-.65-.36-1.01,0-.35.25-.67.59-.75.33-.08.71.1.85.41.13.01.26.03.38.04.13.08.12.27.06.4Z"/>
  </g>
  <path class="cls-5" d="M21.2,32.01c.85-.89,1.96-1.54,3.16-1.85.26-.08.51-.13.78-.17h.01"/>
  <path class="cls-5" d="M22.42,17.72c-.03.05-.06.1-.08.15-.2.45-.31.94-.47,1.41-.27.82-.69,1.77-1.25,2.42-.3.35-.66.64-1.04.91-1.15.8-2.51,1.39-3.16,2.61-.67,1.25-.38,2.78,0,4.15l.27.9c.33,1.02.72,2.02,1.27,2.94.71,1.18,1.71,2.23,2.96,2.81,1.9.88,4.12.62,6.17.19,1.65-.34,3.33-.79,4.65-1.84,1.31-1.05,2.3-4.42,1.73-4.25-.5,1.14-1.32,1.97-2.28,2.76.21-.59.27-1.25.1-1.84-.03-.08-.05-.16-.08-.23-.26-.66-.89-1.04-1.53-1.34-.33-.16-.71-.19-1.07-.19-.17,0-.35.01-.52.03-.38.03-.76.11-1.13.23-.07-.26-.27-.47-.45-.68-.17-.21-.32-.48-.24-.74.05-.15.15-.26.22-.39.06-.13.07-.32-.06-.4-.12-.01-.25-.03-.38-.04-.14-.31-.52-.49-.85-.41-.34.08-.59.4-.59.75,0,.36.26.66.36,1.01.11.36.06.75.12,1.12.01.08.03.15.05.23h.01c.15.49.53.91.99,1.17.52.3,1.13.42,1.73.43"/>
  <path class="cls-5" d="M30.45,28.97c.24.07.5.1.75.09.18,0,.38-.05.47-.21.11-.19-.02-.44.03-.65"/>
  <path class="cls-5" d="M28.09,29.31c-.07-.13-.13-.27-.19-.41-.21-.53-.28-1.14-.06-1.67.04-.1.1-.2.17-.29.09-.12.22-.22.36-.26.12-.02.24-.02.34-.08.14-.1.15-.29.17-.46.03-.22.12-.43.25-.62.16-.26.4-.47.67-.62.46-.26,1.01-.33,1.54-.29h.02c1.1.07,2.18.64,2.77,1.58.59.93.6,2.23-.06,3.11-.51.68-1.32,1.05-2.09,1.4-.23.1-.46.21-.69.34-.53.27-1.03.61-1.36,1.11-.2.31-.33.66-.48.99s-.34.66-.63.89-.53.24-.83.21h-.45c-1.17.04-2.15.06-3.22-.4-.49-.2-.93-.51-1.43-.69-.49-.18-1.09-.23-1.52.08-.04-.41-.09-.82-.17-1.22-.28-1.51-.82-2.96-1.6-4.28"/>
  <path class="cls-5" d="M23.71,23.34c-.1-.25-.14-.53-.1-.81.04-.27.16-.52.3-.75"/>
  <path class="cls-5" d="M23.16,20.8c.18.37.44.71.75.98.31.26.67.45,1.06.52.46.09.96-.01,1.36-.25.3-.17.54-.42.67-.74.08-.17.12-.36.23-.53.1-.16.29-.28.47-.24.09.02.17.07.25.04.12-.04.12-.2.1-.32-.08-.48-.16-.96-.24-1.45l.05-.22.24-.53c.12-.22.28-.42.41-.63.26-.39.43-.83.43-1.3s-.19-.93-.57-1.2c-.66,1.06-1.68,1.9-2.89,2.23-.96.26-1.98.24-2.94.51-.04.01-.08.02-.12.05-1.42.45-2.6,1.59-3.09,3"/>
  <path class="cls-5" d="M16.69,30.27c-.88-.55-1.61-1.37-2.03-2.32-.52-1.19-.58-2.57-.15-3.8.74-2.12,2.75-3.56,3.64-5.62.49-1.11.62-2.34,1.04-3.48.56-1.53,1.7-2.87,3.19-3.51s3.35-.5,4.61.52c.46.37.84.84,1.3,1.21.38.29.8.51,1.14.85.53.53.78,1.3.82,2.05s-.1,1.5-.26,2.24c-.16.76-.33,1.54-.21,2.31.13.84.61,1.58,1,2.33.25.49.48,1.02.56,1.56"/>
  <path class="cls-5" d="M26.33,22.05c.27.08.52.23.73.42.33.3.57.69.81,1.07l1.26,1.98"/>
  <path class="cls-5" d="M28.01,26.94c-.36-.85-1.11-1.53-2-1.76"/>
  <path class="cls-5" d="M19.58,22.61c.36.82.75,1.64,1.34,2.31.53.61,1.21,1.08,1.75,1.68.89.99,1.34,2.27,1.69,3.56"/>
</svg>