<?xml version="1.0" encoding="UTF-8"?>
<svg id="home" xmlns="http://www.w3.org/2000/svg" viewBox="0 0 48 48">
  <defs>
    <style>
      .cls-1 {
        fill: none;
      }

      .cls-1, .cls-2, .cls-3, .cls-4, .cls-5, .cls-6, .cls-7, .cls-8 {
        stroke: #000;
        stroke-miterlimit: 10;
        stroke-width: .5px;
      }

      .cls-2 {
        fill: #c9a18c;
      }

      .cls-3 {
        fill: #faecd6;
      }

      .cls-4 {
        fill: #b5d4b3;
      }

      .cls-5 {
        fill: #e7dfc9;
      }

      .cls-6 {
        fill: #fceed0;
      }

      .cls-7 {
        fill: #c29b88;
      }

      .cls-8 {
        fill: #f8e9c8;
      }
    </style>
  </defs>
  <polygon class="cls-7" points="36.88 21.51 35.35 22.87 33.85 21.73 23.86 14.11 23.81 14.11 14.28 21.38 12.32 22.87 10.79 21.51 23.81 11.26 23.86 11.26 29.32 15.56 32.7 18.22 36.88 21.51"/>
  <path class="cls-4" d="M23.86,14.11h-.05l-9.53,7.27v12.43h6.87v-8.54c0-.26.22-.48.48-.48h4.17c.27,0,.49.22.49.48v8.54h7.56v-12.08l-9.99-7.62ZM19.9,28.84h-4.05v-4.05h4.05v4.05ZM23.91,21.23c-.85,0-1.53-.69-1.53-1.54s.68-1.54,1.53-1.54,1.54.69,1.54,1.54-.68,1.54-1.54,1.54Z"/>
  <path class="cls-6" d="M28.8,36.57v-1.41h-.74v-1.35h6.63c.67,0,1.21,1.2,1.31,2.76h-7.2Z"/>
  <polygon class="cls-5" points="28.8 35.16 28.8 36.57 19.33 36.57 19.33 35.16 20.06 35.16 20.06 33.81 28.06 33.81 28.06 35.16 28.8 35.16"/>
  <rect class="cls-6" x="15.85" y="24.79" width="4.05" height="4.05"/>
  <rect class="cls-6" x="28.06" y="24.79" width="4.05" height="4.05"/>
  <path class="cls-6" d="M20.06,33.81v1.35h-.73v1.41h-7.5c.04-.7.18-1.33.37-1.8.24-.59.57-.96.94-.96h6.92Z"/>
  <line class="cls-1" x1="34.99" y1="33.81" x2="34.69" y2="33.81"/>
  <path class="cls-8" d="M26.29,25.27v8.54h-5.14v-8.54c0-.26.22-.48.48-.48h4.17c.27,0,.49.22.49.48Z"/>
  <path class="cls-3" d="M25.45,19.69c0,.85-.68,1.54-1.54,1.54s-1.53-.69-1.53-1.54.68-1.54,1.53-1.54,1.54.69,1.54,1.54Z"/>
  <polygon class="cls-2" points="32.7 12.88 32.7 18.22 29.32 15.56 29.32 12.88 32.7 12.88"/>
  <line class="cls-1" x1="20.06" y1="35.16" x2="28.06" y2="35.16"/>
</svg>