<?xml version="1.0" encoding="UTF-8"?>
<svg id="température" xmlns="http://www.w3.org/2000/svg" viewBox="0 0 80 80">
  <defs>
    <style>
      .cls-1 {
        fill: #fff7d2;
      }

      .cls-2 {
        fill: #daeef4;
      }

      .cls-2, .cls-3, .cls-4, .cls-5, .cls-6, .cls-7, .cls-8 {
        stroke-miterlimit: 10;
        stroke-width: .3px;
      }

      .cls-2, .cls-5, .cls-6, .cls-7 {
        stroke: #000;
      }

      .cls-3, .cls-4, .cls-8 {
        stroke: #000100;
      }

      .cls-3, .cls-5 {
        fill: none;
      }

      .cls-4 {
        fill: #ee7988;
      }

      .cls-6 {
        fill: #f7d8cc;
      }

      .cls-7 {
        fill: #b2dbe4;
      }

      .cls-8 {
        fill: #d7e1e4;
      }
    </style>
  </defs>
  <circle class="cls-1" cx="40" cy="40" r="34.24"/>
  <path class="cls-6" d="M49.13,25.2c-.92-2.54-2.9-4.57-5.41-5.55h0c-1.07-.42-2.23-.65-3.45-.65-4.07,0-7.55,2.59-8.86,6.21-.37,1-.56,2.08-.56,3.2,0,1.4.31,2.73.85,3.92.04.08.08.16.11.24.54,1.1,1.28,2.07,2.19,2.88,1.67,1.49,3.86,2.39,6.26,2.39s4.38-.81,6.01-2.16c1.02-.84,1.85-1.89,2.44-3.09.08-.16.16-.33.23-.5.48-1.13.74-2.37.74-3.67,0-1.13-.2-2.21-.56-3.21Z"/>
  <path class="cls-5" d="M35.97,24.51c.54-.2,1.17-.13,1.65.18s.81.85.86,1.42c-.48,0-.95,0-1.43,0-.17.25-.33.51-.5.76"/>
  <path class="cls-5" d="M34.42,29.55c.25-.45.71-.77,1.21-.86"/>
  <path class="cls-5" d="M40.07,27.66c-.06.34-.12.69-.02,1.02s.41.62.75.58"/>
  <path class="cls-5" d="M44.75,24.29c-.12-.17-.33-.27-.53-.27s-.41.07-.59.17c-.32.19-.56.5-.72.83s-.28.69-.38,1.05c.18.09.4.08.6.03s.39-.11.6-.11.42.09.51.27l.15.39"/>
  <path class="cls-5" d="M44.67,28.05c.69-.03,1.39.33,1.76.92"/>
  <path class="cls-5" d="M53.07,26.99l2.86-.21"/>
  <path class="cls-5" d="M52.61,28.43c.62.52,1.36.9,2.15,1.1"/>
  <path class="cls-5" d="M51.79,30.39c.44.32.83.72,1.13,1.17.17.21.33.42.5.63"/>
  <path class="cls-6" d="M25.13,39.05c-.2.89-.59,1.73-1.15,2.45-.55.69-1.24,1.27-2.03,1.67-1.09-.84-2.01-1.91-2.55-3.16-.3-.69-.48-1.48-.27-2.2.21-.73.91-1.35,1.66-1.26.57.06,1.06.49,1.63.5.6.01,1.25-.43,1.75-.08.49.34.31,1.1.56,1.64.09.2.24.35.41.46Z"/>
  <path class="cls-7" d="M60.36,43.22c-.06.05-.11.09-.17.13-.67.48-1.42.82-2.17,1.15-.91.41-1.82.82-2.8,1.03-1.51.34-3.07.27-4.6-.03-.49-.09-.98-.21-1.46-.35-2.26-.63-4.54-1.23-6.87-1.45-2.34-.22-4.74-.03-6.92.85-1.07.44-2.09,1.04-3.21,1.33-.31.08-.62.13-.93.16-1.39.14-2.82-.14-4.18-.53-1.57-.44-3.11-1.02-4.47-1.92-.22-.14-.42-.29-.63-.45.79-.4,1.48-.97,2.03-1.67.56-.71.96-1.56,1.15-2.45.4.25.96.31,1.44.23,1.52-.24,2.74-1.31,3.96-2.25,1.02-.79,2.22-1.53,3.47-1.6,1.67,1.49,3.86,2.39,6.26,2.39s4.38-.81,6.01-2.16c.93.13,1.86.28,2.77.54,1.18.34,2.32.88,3.21,1.72.46.43.87.95,1.44,1.22.74.36,1.61.24,2.42.11.19-.03.39-.06.59-.12-.07.66.14,1.36.53,1.92.54.78,1.35,1.32,2.2,1.73.31.15.62.29.94.42Z"/>
  <path class="cls-6" d="M63.08,39.83c-.25.71-.7,1.32-1.19,1.89-.46.55-.96,1.07-1.53,1.51-.31-.14-.63-.27-.94-.42-.85-.41-1.66-.95-2.2-1.73-.38-.56-.59-1.26-.53-1.92.37-.09.71-.25.92-.56.17-.26.23-.58.34-.87s.34-.58.65-.59c.31-.01.56.23.85.3.56.13,1.04-.4,1.59-.58.71-.24,1.53.17,1.91.81.38.65.37,1.47.11,2.17Z"/>
  <path class="cls-2" d="M49.9,52.62c.42-.29.97-.37,1.46-.21.48.17.87.58,1.01,1.07.13.45.06.93-.06,1.38-.48,1.98-1.66,3.76-3.25,5.03"/>
  <path class="cls-2" d="M33.14,59.26c-.9-.62-1.7-1.38-2.38-2.23-.45-.57-.85-1.19-1.03-1.89-.18-.7-.11-1.49.31-2.08.42-.59,1.23-.92,1.9-.66"/>
  <path class="cls-2" d="M50.95,48.4c-.6.08-1.21.18-1.8.29-.76.13-1.58.3-2.1.87-.54.59-.62,1.47-.68,2.28-.06.85-.11,1.7-.17,2.55-.08,1.25-.12,2.63.66,3.61.61.76,1.62,1.15,2.2,1.89-.03.03-.07.06-.11.09-1.65,1.27-3.7,2-5.78,2.1-1.62.08-3.25-.2-4.82-.61-1.69-.44-3.36-1.02-4.83-1.96-.13-.08-.25-.17-.38-.25.27-.19.56-.34.83-.53,1.65-1.13,2.36-3.25,2.42-5.24.02-.87-.06-1.76-.45-2.53-.54-1.04-1.58-1.75-2.7-2.13-.68-.23-1.39-.35-2.11-.43-.12-.77-.05-1.56.1-2.34.31-.03.63-.08.93-.16,1.13-.29,2.14-.9,3.21-1.33,2.17-.88,4.58-1.07,6.92-.85,2.34.22,4.62.82,6.87,1.45.48.14.97.25,1.46.35.02.05.03.11.05.16.25.88.34,1.81.28,2.73Z"/>
  <path class="cls-6" d="M33.56,64.43c-.25.81-.85,1.47-1.54,1.97-.46.33-.97.6-1.5.79-.34.12-.72.21-1.04.05-.41-.2-.54-.74-.47-1.2.06-.45.27-.88.34-1.34.05-.31.06-.64.09-.95.07-.69.21-1.33.99-1.69.43-.2.97-.35,1.49-.34.4,0,.77.12,1.07.37.64.56.82,1.52.57,2.34Z"/>
  <path class="cls-6" d="M53.08,68.38c-.02.42-.25.87-.65,1.02-.4.14-.83-.04-1.21-.22-.57-.28-1.14-.57-1.69-.89-.52-.29-1.04-.62-1.36-1.12-.31-.5-.37-1.11-.3-1.69.08-.59.23-1.74.94-1.76.06,0,.12,0,.18,0,.85.01,1.78.32,2.55.61.28.11.57.23.72.49.17.28.13.62.14.95,0,.06,0,.11,0,.17.03.42.21.82.37,1.22.16.4.32.81.3,1.24Z"/>
  <path class="cls-7" d="M58.68,58.48c-.6,1.78-1.78,3.31-3.11,4.64-.97.98-2.03,1.86-3.17,2.64,0-.34.03-.68-.14-.95-.15-.25-.45-.38-.72-.49-.76-.29-1.7-.59-2.55-.61.09-.37.21-.74.31-1.11.22-.76.34-1.62,0-2.34-.07-.14-.15-.26-.24-.38h0c-.58-.75-1.6-1.14-2.2-1.9-.78-.98-.74-2.36-.66-3.61.06-.85.11-1.7.17-2.55.06-.81.14-1.68.68-2.28.52-.56,1.34-.73,2.1-.87.59-.11,1.2-.21,1.8-.29,2.02-.28,4.07-.34,5.94.39.76.3,1.51.76,1.88,1.49.26.53.31,1.13.34,1.72.14,2.17.27,4.41-.42,6.48Z"/>
  <path class="cls-7" d="M36.39,53.49c-.06,2-.77,4.11-2.42,5.24-.27.19-.56.34-.83.53-.13.09-.25.19-.37.3-.57.56-.77,1.36-.86,2.17-.52,0-1.06.14-1.49.34-.78.36-.92,1-.99,1.69-1.67-.63-3.16-1.7-4.32-3.06-1.32-1.55-2.19-3.47-2.54-5.48-.16-.9-.2-1.86.12-2.71.29-.76.85-1.38,1.4-1.98.71-.77,1.45-1.57,2.43-1.97,1.01-.42,2.15-.35,3.24-.28.45.03.91.06,1.36.11.72.08,1.43.2,2.11.43,1.11.38,2.16,1.09,2.7,2.13.39.77.48,1.67.45,2.53Z"/>
  <path class="cls-4" d="M25.18,16.28l3.74,13.77c.27,1-.28,2.02-1.23,2.36l.45,1.66-1.58.43-.45-1.66c-1,.19-1.99-.42-2.26-1.41l-3.74-13.77c-.28-1.04.34-2.12,1.38-2.4l1.29-.35c1.04-.28,2.12.34,2.4,1.38Z"/>
  <path class="cls-8" d="M28.13,34.06l.2.74c.12.44-.14.89-.57,1-.22.06-.44.02-.62-.08-.18-.1-.32-.28-.38-.5l-.2-.74,1.58-.43Z"/>
  <line class="cls-3" x1="25.04" y1="28.94" x2="26.46" y2="28.55"/>
  <line class="cls-3" x1="24.71" y1="27.71" x2="26.13" y2="27.32"/>
  <line class="cls-3" x1="24.71" y1="27.71" x2="26.13" y2="27.32"/>
  <line class="cls-3" x1="24.38" y1="26.48" x2="26.46" y2="25.91"/>
  <line class="cls-3" x1="24.04" y1="25.25" x2="25.46" y2="24.86"/>
  <line class="cls-3" x1="23.71" y1="24.02" x2="25.13" y2="23.63"/>
  <line class="cls-3" x1="23.37" y1="22.79" x2="25.45" y2="22.22"/>
  <line class="cls-3" x1="23.04" y1="21.56" x2="24.46" y2="21.17"/>
  <line class="cls-3" x1="22.71" y1="20.33" x2="24.79" y2="19.76"/>
  <line class="cls-3" x1="22.37" y1="19.1" x2="23.79" y2="18.71"/>
  <line class="cls-3" x1="22.04" y1="17.87" x2="23.46" y2="17.48"/>
  <line class="cls-3" x1="21.87" y1="17.26" x2="25.38" y2="30.17"/>
  <path class="cls-5" d="M37.7,19.21c0-1.91,1.54-3.45,3.45-3.45s3.45,1.54,3.45,3.45-1.54,3.45-3.45,3.45"/>
  <path class="cls-6" d="M38.82,33.53c0-.74.99-1.35,2.2-1.35s2.2.6,2.2,1.35"/>
</svg>