<?xml version="1.0" encoding="UTF-8"?>
<svg id="Soins" xmlns="http://www.w3.org/2000/svg" viewBox="0 0 80 80">
  <defs>
    <style>
      .cls-1 {
        fill: none;
      }

      .cls-1, .cls-2, .cls-3, .cls-4, .cls-5, .cls-6, .cls-7 {
        stroke: #000;
        stroke-miterlimit: 10;
      }

      .cls-1, .cls-2, .cls-4, .cls-5, .cls-6, .cls-7 {
        stroke-width: .5px;
      }

      .cls-8, .cls-5 {
        fill: #29abe2;
      }

      .cls-2 {
        fill: #b4d1a2;
      }

      .cls-3 {
        stroke-width: .3px;
      }

      .cls-3, .cls-4 {
        fill: #fdfbf7;
      }

      .cls-9 {
        fill: #bfe1f7;
      }

      .cls-6 {
        fill: #aed098;
      }

      .cls-7 {
        fill: #b2d09e;
      }
    </style>
  </defs>
  <circle class="cls-9" cx="40" cy="39.9" r="34.34"/>
  <g>
    <path class="cls-7" d="M29.04,30.13h-9.18c-2.81.03-5.06,2.28-5.06,5.09v21.28c0,2.81,2.28,5.06,5.09,5.06h9.15c2.81,0,5.09-2.25,5.09-5.06v-21.28c0-2.81-2.28-5.09-5.09-5.09ZM24.13,48.7c-.82-.56-4.47-3.3-4.47-6.72,0-1.29,1.02-2.34,2.31-2.34.96,0,1.81.58,2.16,1.43.35-.85,1.2-1.43,2.16-1.43,1.29,0,2.31,1.05,2.31,2.34,0,3.42-3.65,6.17-4.47,6.72Z"/>
    <path class="cls-2" d="M28.78,26.52v3.62h-8.92v-3.62c0-.29.09-.58.23-.82.26-.56.85-.94,1.52-.94h5.44c.96,0,1.72.79,1.72,1.75Z"/>
    <path class="cls-6" d="M31.27,21.2s-1.99-.38-3.3-.29c-1.34.06-1.55.26-1.55.79v3.07h-4.15v-2.87c0-.35-.29-.61-.61-.61h-.61c-.76,0-1.37-.61-1.37-1.4,0-.58.24-1.09.76-1.26l.17-.06.18-.04s1.19-.36,5.63-.27c4.44.09,5.32.99,5.47,1.2.12.18.56,1.29-.61,1.75Z"/>
    <path class="cls-3" d="M28.6,41.97c0,3.42-3.65,6.17-4.47,6.72-.82-.56-4.47-3.3-4.47-6.72,0-1.29,1.02-2.34,2.31-2.34.96,0,1.81.58,2.16,1.43.35-.85,1.2-1.43,2.16-1.43,1.29,0,2.31,1.05,2.31,2.34Z"/>
  </g>
  <g id="Calque_8" data-name="Calque 8">
    <g>
      <path class="cls-4" d="M69.8,39.7c-1.03-3.16-4.43-4.88-7.59-3.85-.1.03-.19.09-.29.13-.82-2.17-3.2-3.34-5.43-2.62-.08.03-.15.07-.22.1-1.54-2.8-4.99-3.99-7.93-2.62-1.49.69-2.55,1.91-3.11,3.32-.63-.15-1.29-.24-1.98-.2-3.24.17-5.76,2.49-5.62,5.19s2.88,4.76,6.12,4.59c1.78-.09,3.33-.85,4.35-1.95,1.63.85,3.62.98,5.41.14.59-.28,1.1-.66,1.56-1.08.84.69,1.92,1.05,3.03.99.03.53.09,1.06.27,1.58,1.03,3.16,4.43,4.89,7.59,3.85,3.16-1.03,4.88-4.43,3.85-7.59Z"/>
      <g>
        <path class="cls-5" d="M70.01,42.66l-2.26,10.82c0,2.61-2.13,4.73-4.73,4.73h-18.22c-2.61,0-4.73-2.13-4.73-4.73l-1.91-10.72c.16.03.35.05.51.05h30.45c.32,0,.61-.05.9-.16Z"/>
        <g>
          <path class="cls-8" d="M72.24,40.28c.29.99-.12,2.03-.99,2.65-.28.18-.58.32-.92.4-10.8,2.68-22.09,2.68-32.89,0-.17-.04-.36-.12-.52-.19-1.14-.51-1.73-1.71-1.39-2.86.39-1.3,1.76-2.03,3.09-1.7,10.02,2.49,20.51,2.49,30.53,0,1.33-.33,2.7.4,3.09,1.7Z"/>
          <path class="cls-1" d="M72.24,40.28c.29.99-.12,2.03-.99,2.65-.28.18-.58.32-.92.4-10.8,2.68-22.09,2.68-32.89,0-.17-.04-.36-.12-.52-.19-1.14-.51-1.73-1.71-1.39-2.86.39-1.3,1.76-2.03,3.09-1.7,10.02,2.49,20.51,2.49,30.53,0,1.33-.33,2.7.4,3.09,1.7Z"/>
        </g>
      </g>
    </g>
  </g>
</svg>