<?xml version="1.0" encoding="UTF-8"?>
<svg id="tétée" xmlns="http://www.w3.org/2000/svg" viewBox="0 0 80 80">
  <defs>
    <style>
      .cls-1 {
        fill: #bfe1f7;
      }

      .cls-1, .cls-2, .cls-3 {
        stroke: #1d1d1b;
        stroke-miterlimit: 10;
        stroke-width: .6px;
      }

      .cls-4 {
        fill: #efe1bd;
      }

      .cls-2 {
        fill: #e8b681;
      }

      .cls-3, .cls-5 {
        fill: #f8d3be;
      }
    </style>
  </defs>
  <circle class="cls-4" cx="40" cy="40" r="34.24"/>
  <path class="cls-5" d="M40.04,40.31h0c-.05-.2-.07-.41-.08-.63l.09.63Z"/>
  <path class="cls-1" d="M61.94,60.26c0,2.36-1.91,4.27-4.27,4.27s-4.27-1.91-4.27-4.27c0-4.24,4.27-11.08,4.27-11.08,0,0,4,5.97,4.25,10.63.02.15.02.3.02.45Z"/>
  <path class="cls-2" d="M52.39,43.32c-.79.48-1.75.51-2.66.54-.07,1.24-.16,2.5-.33,3.73-.06,0-.12,0-.17-.01-.95-.07-1.9-.39-2.58-1.05-1-.97-1.24-2.5-1.12-3.88.14-1.39.6-2.78,1.5-3.84.65-.78,1.56-1.37,2.54-1.61h0c.31,1.07.56,2.14.77,3.22,1.01-.34,2.38-.37,2.9.56.45.8-.06,1.86-.84,2.33Z"/>
  <path class="cls-3" d="M49.23,47.58c.05,0,.11.01.17.01-.29,2.08-.84,4.09-2.03,5.79-1.29,1.83-3.22,3.12-5.27,4.01-5.14,2.22-11.35,1.99-16.16-.88-4.82-2.86-7.85-8.35-7.88-13.95-.09-17.44,6.61-26.8,6.82-27.09.79,3.71,6.96,4.51,6.96,4.51,4.88.62,9.35,3.39,12.51,7.16,2.45,2.92,4.15,6.4,5.22,10.07-.99.24-1.89.82-2.54,1.61-.9,1.06-1.36,2.45-1.5,3.84-.13,1.39.12,2.92,1.12,3.88.69.66,1.64.97,2.58,1.05Z"/>
</svg>