<?xml version="1.0" encoding="UTF-8"?>
<svg id="carotte" xmlns="http://www.w3.org/2000/svg" viewBox="0 0 48 48">
  <defs>
    <style>
      .cls-1 {
        fill: #EF9F27;
        stroke: #000;
        stroke-miterlimit: 10;
        stroke-width: .5px;
      }
      .cls-2 {
        fill: #97C459;
        stroke: #000;
        stroke-miterlimit: 10;
        stroke-width: .5px;
      }
    </style>
  </defs>
  <path class="cls-2" d="M24,18 C22,13 19,11 16,10 C18,14 20,17 22,19 Z"/>
  <path class="cls-2" d="M24,18 C24,12 24,9 24,7 C25,11 25,15 25,18 Z"/>
  <path class="cls-2" d="M24,18 C26,13 29,11 32,10 C30,14 28,17 26,19 Z"/>
  <path class="cls-1" d="M24,18 C31,18 33,22 32,27 C31,32 29,37 25,41.5 C24.5,42 23.5,42 23,41.5 C19,37 17,32 16,27 C15,22 17,18 24,18 Z"/>
</svg>
